
    <svg width="300" height="245" viewBox="0 0 300 245" fill="none" xmlns="http://www.w3.org/2000/svg">
      <style>
        .header { font: 600 18px 'Segoe UI', Ubuntu, Sans-Serif; fill: #58A6FF }
        .lang-name { font: 400 11px 'Segoe UI', Ubuntu, Sans-Serif; fill: #E2E8F0 }
      </style>
      <rect data-testid="card-bg" x="0.5" y="0.5" width="99.7%" height="99%" rx="4.5" fill="#0F172A" stroke="#E4E2E2"/>

      
      <text data-testid="header" x="25" y="35" class="header">Top Languages</text>

      <svg data-testid="lang-items" x="25" y="55">
      <g transform="translate(0, 0)">
    <text data-testid="lang-name" x="2" y="15" class="lang-name">Python</text>
    <text x="215" y="34" class="lang-name">99.32%</text>
    <svg width="205">
      <rect rx="5" ry="5" x="0" y="25" width="205" height="8" fill="#ddd"></rect>
      <rect 
        height="8" 
        fill="#3572A5"
        rx="5" ry="5" x="0" y="25" 
        data-testid="lang-progress" 
        width="99.32%"
      >
      </rect>
    </svg>
  </g><g transform="translate(0, 40)">
    <text data-testid="lang-name" x="2" y="15" class="lang-name">JavaScript</text>
    <text x="215" y="34" class="lang-name">0.67%</text>
    <svg width="205">
      <rect rx="5" ry="5" x="0" y="25" width="205" height="8" fill="#ddd"></rect>
      <rect 
        height="8" 
        fill="#f1e05a"
        rx="5" ry="5" x="0" y="25" 
        data-testid="lang-progress" 
        width="2%"
      >
      </rect>
    </svg>
  </g><g transform="translate(0, 80)">
    <text data-testid="lang-name" x="2" y="15" class="lang-name">TypeScript</text>
    <text x="215" y="34" class="lang-name">0.00%</text>
    <svg width="205">
      <rect rx="5" ry="5" x="0" y="25" width="205" height="8" fill="#ddd"></rect>
      <rect 
        height="8" 
        fill="#3178c6"
        rx="5" ry="5" x="0" y="25" 
        data-testid="lang-progress" 
        width="2%"
      >
      </rect>
    </svg>
  </g><g transform="translate(0, 120)">
    <text data-testid="lang-name" x="2" y="15" class="lang-name">C++</text>
    <text x="215" y="34" class="lang-name">0.00%</text>
    <svg width="205">
      <rect rx="5" ry="5" x="0" y="25" width="205" height="8" fill="#ddd"></rect>
      <rect 
        height="8" 
        fill="#f34b7d"
        rx="5" ry="5" x="0" y="25" 
        data-testid="lang-progress" 
        width="2%"
      >
      </rect>
    </svg>
  </g>
      </svg>
    </svg>
  