<svg width="1200" height="360" viewBox="0 0 1200 360" fill="none" xmlns="http://www.w3.org/2000/svg">
  <defs>
    <linearGradient id="bg" x1="80" y1="20" x2="1120" y2="340" gradientUnits="userSpaceOnUse">
      <stop stop-color="#050816"/>
      <stop offset="0.48" stop-color="#0B1739"/>
      <stop offset="1" stop-color="#111827"/>
    </linearGradient>
    <linearGradient id="accent" x1="220" y1="90" x2="980" y2="290" gradientUnits="userSpaceOnUse">
      <stop stop-color="#38BDF8"/>
      <stop offset="0.48" stop-color="#818CF8"/>
      <stop offset="1" stop-color="#22D3EE"/>
    </linearGradient>
    <radialGradient id="glow1" cx="0" cy="0" r="1" gradientTransform="translate(1050 30) rotate(135) scale(440 340)" gradientUnits="userSpaceOnUse">
      <stop stop-color="#2563EB" stop-opacity="0.38"/>
      <stop offset="1" stop-color="#2563EB" stop-opacity="0"/>
    </radialGradient>
    <radialGradient id="glow2" cx="0" cy="0" r="1" gradientTransform="translate(120 350) rotate(-35) scale(500 300)" gradientUnits="userSpaceOnUse">
      <stop stop-color="#06B6D4" stop-opacity="0.28"/>
      <stop offset="1" stop-color="#06B6D4" stop-opacity="0"/>
    </radialGradient>
    <filter id="shadow" x="-20%" y="-20%" width="140%" height="140%">
      <feDropShadow dx="0" dy="16" stdDeviation="18" flood-color="#000000" flood-opacity="0.35"/>
    </filter>
  </defs>

  <rect width="1200" height="360" rx="28" fill="url(#bg)"/>
  <rect width="1200" height="360" rx="28" fill="url(#glow1)"/>
  <rect width="1200" height="360" rx="28" fill="url(#glow2)"/>

  <g opacity="0.22">
    <path d="M0 72H1200M0 144H1200M0 216H1200M0 288H1200" stroke="#93C5FD" stroke-width="1"/>
    <path d="M120 0V360M240 0V360M360 0V360M480 0V360M600 0V360M720 0V360M840 0V360M960 0V360M1080 0V360" stroke="#93C5FD" stroke-width="1"/>
  </g>

  <g filter="url(#shadow)">
    <rect x="72" y="65" width="1056" height="230" rx="24" fill="#07101F" fill-opacity="0.76" stroke="#60A5FA" stroke-opacity="0.28"/>
  </g>

  <circle cx="108" cy="101" r="7" fill="#FB7185"/>
  <circle cx="132" cy="101" r="7" fill="#FBBF24"/>
  <circle cx="156" cy="101" r="7" fill="#34D399"/>

  <text x="100" y="165" fill="white" font-family="Inter,Segoe UI,Arial,sans-serif" font-size="52" font-weight="800">
    Sadekul Islam
  </text>
  <text x="100" y="211" fill="#A5B4FC" font-family="Inter,Segoe UI,Arial,sans-serif" font-size="28" font-weight="700">
    Lì Ào / 利奥
  </text>
  <text x="100" y="252" fill="#CBD5E1" font-family="Inter,Segoe UI,Arial,sans-serif" font-size="22" font-weight="500">
    CTO &amp; Co-Founder • Full-Stack Product Engineer • Software Engineering Student
  </text>

  <g transform="translate(910 117)">
    <rect width="150" height="112" rx="20" fill="#0F172A" stroke="url(#accent)" stroke-width="2"/>
    <path d="M35 35L17 56L35 77" stroke="#38BDF8" stroke-width="7" stroke-linecap="round" stroke-linejoin="round"/>
    <path d="M115 35L133 56L115 77" stroke="#818CF8" stroke-width="7" stroke-linecap="round" stroke-linejoin="round"/>
    <path d="M89 24L62 88" stroke="#22D3EE" stroke-width="7" stroke-linecap="round"/>
  </g>

  <text x="100" y="329" fill="#64748B" font-family="Inter,Segoe UI,Arial,sans-serif" font-size="15" letter-spacing="2">
    BUILDING INTELLIGENT SYSTEMS • SCALABLE PLATFORMS • GLOBAL DIGITAL ECOSYSTEMS
  </text>
</svg>
